<svg width="1088" height="391" viewBox="0 0 1088 391" fill="none" xmlns="http://www.w3.org/2000/svg">
<g opacity="0.49" clip-path="url(#clip0_3322_704)">
<path d="M308.37 191.734H22.6458C22.5594 191.072 22.5223 190.397 22.5223 189.709C22.5223 182.378 27.5001 176.159 34.3801 173.962C34.3801 173.671 34.3801 173.393 34.3801 173.102C34.3801 145.815 57.4782 123.703 85.9987 123.703C102.488 123.703 117.2 131.113 126.636 142.653C127.575 113.685 152.39 90.5011 182.875 90.5011C213.359 90.5011 239.15 114.612 239.15 144.36C239.15 148.038 238.767 151.638 238.038 155.092C244.782 151.611 252.527 149.626 260.729 149.626C285.852 149.626 306.443 168.166 308.382 191.734H308.37Z" fill="#EAE2CB"/>
<path d="M1203.99 124H972.1C972.03 123.464 972 122.917 972 122.36C972 116.422 976.04 111.384 981.624 109.604C981.624 109.369 981.624 109.144 981.624 108.908C981.624 86.8052 1000.37 68.8939 1023.52 68.8939C1036.9 68.8939 1048.84 74.8965 1056.5 84.2434C1057.26 60.7796 1077.4 42 1102.14 42C1126.88 42 1147.81 61.5299 1147.81 85.6262C1147.81 88.606 1147.5 91.5216 1146.91 94.3192C1152.38 91.5001 1158.67 89.8923 1165.32 89.8923C1185.72 89.8923 1202.43 104.91 1204 124H1203.99Z" fill="#EAE2CB"/>
<path d="M821.805 129.518H444.123C444.123 117.589 456.186 107.919 471.064 107.919C472.175 107.919 473.287 107.972 474.361 108.091C474.188 106.611 474.101 105.105 474.101 103.599C474.101 77.3507 500.623 56.0822 533.355 56.0822C550.035 56.0822 565.111 61.6173 575.865 70.5078C593.941 47.3899 626.019 32 662.578 32C716.25 32 760.28 65.1576 764.527 107.325C770.392 104.194 777.43 102.358 784.998 102.358C804.358 102.358 820.249 114.313 821.805 129.518Z" fill="#EAE2CB"/>
<path d="M632.344 315.036C632.344 317.088 632.134 319.087 631.751 321.046H256.408C256.408 309.093 268.467 299.39 283.356 299.39C284.641 299.39 285.877 299.456 287.113 299.601C294.786 280.447 317.163 266.601 343.543 266.601C365.278 266.601 384.269 275.986 394.599 289.991C394.463 288.376 394.389 286.748 394.389 285.107C394.389 247.513 432.347 217.027 479.165 217.027C525.982 217.027 561.024 245.209 563.78 280.804C570.119 278.276 577.273 276.86 584.835 276.86C611.092 276.86 632.357 293.949 632.357 315.023L632.344 315.036Z" fill="#EAE2CB"/>
<path d="M1035.15 284.407H775.287C775.287 272.617 783.47 263.022 793.606 262.891C793.606 223.486 821.123 191.546 855.079 191.546C879.27 191.546 900.21 207.779 910.235 231.372C918.629 220.2 930.978 213.141 944.761 213.141C970.052 213.141 990.559 236.945 990.559 266.308C990.559 266.742 990.559 267.176 990.559 267.622C995.22 261.327 1002.12 257.357 1009.82 257.357C1023.14 257.357 1034.08 269.265 1035.16 284.42L1035.15 284.407Z" fill="#EAE2CB"/>
</g>
<defs>
<clipPath id="clip0_3322_704">
<rect width="1088" height="391" fill="white"/>
</clipPath>
</defs>
</svg>
